<?xml version="1.0" standalone="no"?>
<!DOCTYPE svg PUBLIC "-//W3C//DTD SVG 20010904//EN"
 "http://www.w3.org/TR/2001/REC-SVG-20010904/DTD/svg10.dtd">
<svg version="1.0" xmlns="http://www.w3.org/2000/svg"
 width="911.755894pt" height="594.493300pt" viewBox="224.159077 250.000000 911.755894 594.493300"
 preserveAspectRatio="xMidYMid meet">

<defs>
<linearGradient id="grad-purp" x1="0%" y1="0%" x2="100%" y2="100%">
<stop offset="0%" stop-color="#A78BFA" />
<stop offset="100%" stop-color="#EC4899" />
</linearGradient>
</defs>

<g transform="translate(0.000000,1169.000000) scale(0.100000,-0.100000)"
fill="url(#grad-purp)" stroke="none">
<path d="M8293 8888 c-137 -167 -332 -404 -433 -528 -101 -124 -216 -264 -254
-311 -39 -47 -105 -128 -147 -180 -89 -110 -687 -841 -772 -943 -31 -39 -54
-73 -50 -76 5 -4 78 -63 163 -131 165 -133 483 -391 1005 -815 402 -326 873
-704 879 -704 4 0 201 232 292 344 23 28 121 145 218 261 97 115 175 213 174
216 -2 4 -88 76 -193 160 -104 84 -235 189 -290 234 -55 45 -237 193 -405 329
-168 136 -311 253 -318 260 -10 10 9 38 94 142 58 71 159 194 224 274 66 80
136 164 157 187 l38 41 230 -189 c127 -105 437 -358 690 -564 474 -385 523
-431 583 -551 60 -119 89 -283 72 -403 -15 -104 -56 -222 -104 -293 -23 -35
-188 -238 -367 -453 -178 -214 -373 -449 -431 -521 -120 -147 -164 -187 -270
-243 -122 -66 -203 -86 -348 -86 -103 0 -138 4 -200 23 -140 44 -158 56 -605
421 -198 162 -323 261 -328 261 -6 0 -697 -827 -697 -834 0 -13 747 -615 846
-681 130 -87 253 -149 392 -195 160 -54 277 -77 457 -90 428 -33 882 101 1220
359 141 108 188 159 710 781 76 91 204 243 284 339 187 222 249 304 315 416
92 154 166 342 207 527 26 119 37 441 20 585 -42 345 -188 680 -413 948 -124
148 -157 178 -539 487 -107 86 -430 349 -719 584 -289 234 -590 479 -670 544
-80 65 -190 154 -245 199 -131 107 -212 171 -219 171 -2 0 -116 -136 -253
-302z"/>
<path d="M4680 9145 c-310 -45 -564 -141 -806 -304 -167 -112 -286 -220 -417
-378 -61 -75 -150 -182 -197 -237 -306 -360 -694 -833 -738 -898 -142 -211
-243 -485 -273 -743 -15 -125 -6 -385 16 -515 53 -300 190 -588 394 -831 93
-110 217 -221 551 -489 563 -452 1112 -895 1335 -1075 127 -103 297 -241 378
-307 81 -65 151 -118 156 -116 13 5 102 113 602 723 261 319 526 642 589 719
63 76 140 169 170 206 30 37 116 141 190 230 259 313 340 413 340 421 0 8 -55
53 -565 464 -649 523 -1099 889 -1335 1085 -63 52 -122 101 -131 108 -14 11
-44 -20 -225 -235 -334 -395 -484 -574 -484 -578 0 -4 339 -280 944 -769 149
-121 270 -225 270 -231 -1 -12 -485 -598 -501 -608 -5 -3 -105 75 -224 172
-119 97 -339 275 -490 396 -702 565 -726 587 -800 740 -55 115 -73 191 -73
315 1 129 19 207 76 318 35 68 120 175 463 585 449 537 519 613 607 665 120
71 285 109 419 98 182 -15 280 -61 485 -228 83 -68 178 -144 210 -169 68 -53
145 -115 291 -236 57 -47 105 -84 107 -82 10 12 232 282 444 542 134 164 242
302 240 307 -5 15 -781 634 -848 676 -206 131 -396 204 -645 249 -126 22 -406
28 -525 10z"/>
</g>
</svg>
