<?xml version="1.0" standalone="no"?>
<!DOCTYPE svg PUBLIC "-//W3C//DTD SVG 20010904//EN"
 "http://www.w3.org/TR/2001/REC-SVG-20010904/DTD/svg10.dtd">
<svg version="1.0" xmlns="http://www.w3.org/2000/svg"
 width="2172.000000pt" height="724.000000pt" viewBox="0 0 2172.000000 724.000000"
 preserveAspectRatio="xMidYMid meet">

<g transform="translate(0.000000,724.000000) scale(0.100000,-0.100000)"
fill="#000000" stroke="none">
<path d="M16643 6667 c-17 -12 -72 -48 -122 -80 -64 -42 -114 -84 -168 -146
-202 -226 -296 -268 -748 -336 -105 -16 -263 -50 -371 -79 -118 -32 -289 -116
-357 -175 -18 -16 -46 -35 -63 -44 -17 -9 -62 -41 -99 -72 -37 -30 -71 -55
-75 -55 -21 0 -135 -136 -189 -225 -101 -167 -250 -288 -414 -336 -69 -21 -83
-22 -133 -11 -68 14 -81 24 -105 80 -46 107 -1 242 140 423 18 23 19 28 5 47
-22 32 -53 27 -152 -20 -322 -153 -542 -405 -592 -678 -16 -88 -47 -182 -77
-236 -89 -158 -314 -299 -510 -319 -64 -6 -73 -5 -92 14 -50 50 -14 121 116
228 54 45 112 96 129 114 42 46 78 114 71 133 -13 33 -38 28 -117 -24 -96 -63
-165 -91 -290 -120 -215 -50 -485 -223 -609 -389 -102 -138 -257 -221 -516
-276 -114 -25 -190 -24 -258 4 -31 13 -57 27 -57 32 0 27 61 71 126 93 176 60
326 216 384 401 7 22 26 61 42 87 16 26 27 52 23 58 -16 26 -48 5 -184 -116
-193 -172 -357 -232 -695 -254 -319 -20 -448 -61 -681 -215 -60 -41 -126 -80
-145 -89 -231 -102 -498 -152 -580 -109 -19 10 -43 33 -53 51 -19 32 -19 33 2
83 22 55 95 161 173 250 35 41 48 65 48 87 0 50 -27 49 -132 -5 -51 -26 -129
-63 -173 -82 -44 -19 -120 -59 -170 -90 -222 -137 -319 -239 -419 -438 -29
-58 -16 -54 -196 -73 -58 -6 -132 -16 -165 -22 -33 -5 -100 -16 -150 -23 -49
-8 -153 -25 -230 -40 -77 -14 -183 -30 -235 -35 -217 -22 -1136 -180 -1405
-242 -65 -15 -114 -40 -144 -72 -23 -24 -25 -25 -59 -11 -19 8 -51 15 -72 15
-35 0 -261 -30 -485 -65 -55 -8 -117 -15 -138 -15 l-39 0 41 48 c22 26 85 94
140 152 99 104 120 141 85 154 -9 3 -44 -10 -82 -33 -93 -54 -146 -78 -227
-106 -120 -41 -177 -53 -209 -42 -26 9 -28 13 -23 46 12 93 123 248 207 291
58 30 172 159 219 249 67 129 49 177 -33 90 -65 -69 -133 -110 -256 -154 -110
-40 -129 -51 -250 -153 -120 -102 -268 -161 -401 -162 -52 0 -143 -29 -198
-62 -20 -12 -63 -48 -96 -79 -33 -31 -78 -69 -99 -83 l-39 -26 -24 22 c-30 28
-29 42 8 152 48 144 114 243 245 365 112 105 85 137 -51 60 -38 -21 -108 -59
-155 -83 -47 -24 -98 -58 -114 -75 -17 -17 -35 -31 -40 -31 -6 0 -36 -22 -66
-48 -31 -26 -107 -82 -170 -124 -306 -205 -429 -359 -484 -603 -19 -81 -21
-135 -5 -135 10 0 131 86 277 197 188 143 333 245 339 239 2 -2 -5 -31 -17
-65 -25 -76 -25 -77 6 -106 23 -21 37 -25 90 -25 107 0 254 44 394 117 110 58
203 94 213 84 10 -10 -33 -79 -89 -142 -17 -20 -35 -46 -38 -57 -9 -26 -8 -26
-196 -56 -198 -32 -640 -119 -739 -146 -269 -73 -328 -105 -407 -221 -69 -103
-77 -135 -130 -554 -19 -149 -27 -644 -12 -697 23 -77 138 -148 241 -148 l47
0 0 -63 c0 -53 5 -71 30 -110 16 -26 34 -47 40 -47 5 0 10 -4 10 -8 0 -7 -774
-24 -1125 -25 -343 -1 -811 -31 -834 -53 -22 -20 2 -41 68 -60 58 -17 89 -17
566 4 198 9 917 1 855 -9 -25 -4 -83 -8 -130 -9 -47 -1 -166 -9 -264 -18 -183
-17 -219 -29 -159 -53 29 -12 131 -9 498 11 756 41 1043 43 4790 25 633 -3
3018 -8 5300 -10 2283 -3 4256 -7 4385 -9 806 -14 1768 -15 1945 -4 105 7 263
11 351 9 154 -3 162 -2 176 18 14 20 24 20 312 22 179 2 300 7 303 13 12 18
-37 44 -96 51 -66 8 -150 11 -511 21 -135 4 -250 11 -257 16 -18 14 -782 29
-1358 26 -281 -1 -515 1 -522 5 -6 4 -308 7 -672 7 -364 1 -661 5 -661 9 0 5
11 12 24 15 13 3 37 18 53 33 l30 28 104 -8 c57 -4 129 -5 159 -2 30 3 396 5
813 6 486 0 768 4 785 10 38 14 71 58 72 94 0 17 -9 45 -20 63 -24 39 -24 42
-5 42 9 0 43 11 78 25 34 14 78 26 97 27 44 1 134 47 198 102 177 151 228 307
172 527 -11 42 -20 85 -20 95 0 19 56 95 122 165 53 57 186 216 274 328 47 60
63 86 55 94 -8 8 -20 8 -44 -2 -17 -7 -52 -21 -77 -30 -25 -10 -93 -41 -151
-70 -58 -28 -118 -51 -132 -51 -26 0 -27 3 -27 49 0 86 117 371 189 461 15 19
35 50 44 68 26 54 75 108 240 269 31 31 57 59 57 64 0 12 -30 39 -45 39 -7 0
-37 -16 -66 -36 -30 -20 -101 -65 -159 -99 -58 -34 -159 -101 -225 -149 -115
-84 -119 -87 -128 -64 -5 14 -4 32 2 46 6 13 11 31 11 41 0 31 58 134 105 185
43 46 61 94 32 83 -7 -3 -53 -31 -102 -63 -106 -68 -220 -180 -266 -261 -35
-64 -96 -143 -108 -143 -5 0 -43 55 -84 123 -42 67 -98 150 -124 185 -26 35
-58 78 -71 95 -79 110 -243 257 -286 257 -8 0 -18 5 -21 10 -8 14 -186 129
-250 163 -227 120 -546 202 -903 233 -67 6 -74 8 -84 33 -22 58 -21 88 8 152
34 80 140 187 258 263 44 29 119 89 165 132 92 87 261 287 261 310 0 17 -38
57 -48 51 -79 -46 -242 -101 -384 -132 -70 -15 -79 -15 -107 0 -39 20 -41 54
-5 129 20 43 42 67 107 118 45 35 102 77 127 93 51 34 147 131 186 186 21 31
24 41 14 58 -16 31 -37 26 -119 -25 -108 -67 -175 -95 -302 -128 -72 -19 -185
-71 -283 -131 -111 -67 -187 -99 -292 -124 -117 -27 -176 -27 -232 0 -120 58
-108 198 29 353 28 30 107 101 177 157 172 139 195 159 286 258 151 164 277
389 320 571 28 120 45 229 39 248 -7 17 -23 14 -60 -11z m-1083 -1015 c0 -4
-18 -26 -41 -47 -59 -57 -171 -209 -206 -280 -56 -111 -76 -183 -77 -275 -1
-68 3 -94 21 -130 29 -59 89 -116 144 -136 55 -20 187 -24 220 -6 30 16 120 4
127 -16 5 -17 -118 -137 -206 -201 -74 -54 -120 -113 -129 -166 -4 -27 -1 -35
25 -54 37 -26 64 -26 170 -1 132 32 256 77 389 142 68 33 126 58 129 55 6 -6
-76 -154 -110 -200 -11 -15 -63 -65 -116 -110 l-95 -82 -260 -4 c-143 -2 -312
-3 -375 -2 -359 7 -762 2 -945 -13 -110 -9 -346 -25 -525 -36 -179 -11 -390
-25 -470 -31 -80 -6 -171 -9 -203 -7 l-58 3 103 52 c129 66 183 112 252 216
106 158 254 280 458 377 143 68 150 59 63 -85 -88 -147 -112 -229 -79 -266 12
-14 22 -15 50 -7 20 5 44 18 55 29 21 21 51 24 77 8 47 -29 237 81 387 223 93
88 116 118 193 249 118 203 196 312 288 403 166 166 390 311 589 380 68 24
155 34 155 18z m-1991 -607 c-8 -60 -42 -135 -56 -121 -6 6 50 186 58 186 3 0
2 -29 -2 -65z m781 -99 c0 -2 -8 -10 -17 -17 -16 -13 -17 -12 -4 4 13 16 21
21 21 13z m-86 -86 c-25 -33 -49 -62 -55 -65 -15 -10 -10 11 6 25 8 7 15 18
15 25 0 16 54 75 69 75 6 0 -10 -27 -35 -60z m-1387 -802 c15 -17 15 -18 -3
-18 -10 0 -143 -9 -294 -20 -548 -40 -694 -49 -698 -45 -5 5 7 6 288 44 396
54 429 57 577 57 97 1 115 -2 130 -18z m3259 -73 c183 -15 211 -18 484 -55
502 -70 831 -177 1021 -335 275 -228 428 -434 649 -875 112 -223 135 -279 225
-567 3 -8 -13 -11 -48 -11 -177 3 -347 -188 -225 -253 66 -35 291 35 262 82
-3 5 3 20 12 35 21 31 26 24 44 -64 11 -55 11 -72 -5 -137 -15 -64 -25 -82
-74 -139 -70 -81 -124 -122 -226 -173 -93 -46 -136 -60 -133 -41 2 8 -5 12
-17 10 -11 -1 -175 -11 -365 -22 -274 -15 -551 -20 -1350 -25 -553 -3 -1096
-10 -1207 -15 -111 -5 -209 -7 -216 -4 -13 4 -93 91 -137 148 -14 19 -13 19
39 13 29 -4 61 -2 70 3 18 9 612 34 751 32 57 -2 93 2 109 12 l24 13 -24 16
c-18 12 -89 19 -309 31 -157 9 -338 16 -402 16 l-117 0 -5 43 c-20 166 -27
479 -15 677 27 434 39 557 74 770 8 47 21 132 30 190 25 175 43 262 64 320 11
30 30 85 43 121 27 73 82 169 107 184 41 25 537 25 867 0z m-1326 -16 c91 -6
194 -13 230 -14 36 -2 66 -3 67 -4 1 -1 -7 -20 -17 -44 -13 -29 -23 -86 -30
-178 -14 -187 -31 -321 -42 -339 -9 -14 -6 50 8 178 8 64 -7 69 -29 10 -65
-175 -136 -583 -157 -908 -13 -196 -4 -500 15 -500 16 0 25 -98 25 -260 -1
-111 -2 -122 -14 -100 -14 24 -14 24 -20 -20 -3 -25 -7 -57 -8 -73 l-3 -27
-120 -5 c-66 -3 -374 -9 -685 -15 -702 -13 -1333 -28 -1425 -35 -124 -10
-1274 -15 -1297 -6 l-23 9 1 238 c1 187 7 290 27 474 15 129 36 323 48 430 11
107 27 242 36 300 9 58 18 120 20 137 3 18 2 41 -2 50 -5 10 -7 23 -7 29 1 6
-7 19 -19 30 -18 16 -40 20 -143 22 -118 4 -195 -3 -420 -35 -95 -13 -115 -20
-157 -50 -43 -31 -48 -38 -54 -85 -4 -29 -11 -59 -16 -68 -15 -25 -87 -338
-103 -445 -48 -315 -69 -757 -46 -970 4 -44 7 -81 5 -83 -1 -1 -344 -7 -761
-12 -418 -5 -883 -14 -1034 -20 -151 -5 -502 -10 -780 -10 -278 0 -631 -4
-785 -10 -401 -14 -710 -12 -835 5 -58 8 -123 15 -146 15 -70 0 -75 13 -81
207 -7 221 15 493 63 783 33 202 83 437 103 490 12 30 21 63 21 72 0 30 51 78
114 108 71 33 209 55 711 115 165 20 327 40 360 45 99 16 278 38 485 60 527
56 872 93 1045 110 105 11 228 24 275 30 134 16 784 77 1008 95 111 8 273 22
360 30 298 29 478 44 697 59 432 30 523 37 730 56 345 32 573 49 895 65 421
20 714 37 1160 65 185 11 571 11 750 -1z m-5844 -75 c-7 -18 -26 -18 -26 1 0
8 6 27 13 42 l12 28 3 -29 c2 -15 1 -34 -2 -42z m1237 24 c-40 -23 -73 -47
-73 -54 0 -17 -20 -23 -98 -30 l-67 -6 30 19 c59 36 237 112 265 112 8 0 -18
-18 -57 -41z m1177 32 c0 -5 -9 -10 -20 -10 -11 0 -20 5 -20 10 0 6 9 10 20
10 11 0 20 -4 20 -10z m-120 -20 c-8 -5 -22 -10 -30 -10 -13 0 -13 1 0 10 8 5
22 10 30 10 13 0 13 -1 0 -10z m-1575 -57 c-60 -30 -120 -64 -132 -75 -16 -15
-40 -21 -90 -24 l-68 -5 54 26 c29 14 83 36 120 49 36 13 98 38 136 55 110 48
100 35 -20 -26z m740 -2 c-6 -5 -49 -11 -97 -13 -94 -3 -109 8 -18 15 112 7
124 7 115 -2z m-2098 -228 c-4 -3 -141 -26 -304 -49 -356 -52 -410 -59 -402
-50 10 11 269 55 469 80 217 27 246 29 237 19z m3061 -362 c1 -1 -2 -10 -8
-22 -7 -11 -13 -46 -15 -77 -2 -32 -13 -109 -25 -172 -44 -251 -80 -480 -89
-570 -6 -52 -15 -133 -21 -180 -12 -99 -29 -461 -24 -505 2 -16 5 -53 7 -80
l4 -50 -276 -4 c-386 -7 -379 -7 -384 -1 -32 34 -23 440 19 855 43 432 68 591
105 669 11 22 19 52 19 66 0 27 0 27 98 34 53 4 178 15 277 25 141 15 283 20
313 12z m-5672 -117 c19 -9 37 -20 39 -24 3 -5 -6 -48 -19 -97 -97 -353 -147
-745 -149 -1188 -1 -159 0 -297 3 -305 4 -13 -16 -15 -140 -16 -80 -1 -275 -7
-435 -13 -159 -6 -499 -18 -755 -26 -256 -8 -526 -17 -600 -20 -149 -5 -457 8
-536 23 -72 15 -121 37 -134 63 -15 28 -9 225 8 254 10 18 11 18 12 3 0 -17
40 -27 40 -10 0 4 9 63 20 131 31 191 112 494 166 621 35 83 107 156 203 204
39 20 78 47 87 61 11 16 26 25 43 25 14 0 114 16 221 35 396 72 448 80 1245
204 176 27 367 55 425 61 58 7 128 16 155 20 28 4 54 8 58 9 5 0 24 -6 43 -15z
m434 -3 c0 -6 -4 -12 -9 -16 -5 -3 -15 -31 -21 -63 -7 -31 -21 -84 -31 -117
-42 -137 -104 -450 -133 -680 -32 -245 -38 -661 -11 -727 8 -20 -15 -23 -72
-12 -25 5 -32 13 -43 52 -31 107 -12 567 35 862 21 128 110 560 126 613 11 31
22 42 72 67 62 31 87 37 87 21z m-349 -392 c-6 -16 -10 -18 -10 -7 -1 22 12
55 16 42 2 -6 -1 -22 -6 -35z m12679 -18 c0 -11 3 -28 6 -38 3 -10 -2 -7 -10
7 -18 29 -20 50 -6 50 6 0 10 -9 10 -19z m-15338 -273 c-68 -224 -91 -305
-103 -373 -20 -113 -22 -56 -4 103 26 233 49 313 104 359 14 12 29 22 32 23 3
0 -10 -51 -29 -112z m15316 -460 c-3 -52 -3 -53 -40 -59 -42 -6 -44 -3 -23 25
8 11 15 29 15 41 0 24 18 45 38 45 10 0 12 -14 10 -52z m-4180 -485 c-10 -2
-28 -2 -40 0 -13 2 -5 4 17 4 22 1 32 -1 23 -4z m-1632 -46 c-11 -7 -30 -22
-43 -34 -23 -22 -23 -22 -165 -8 -79 7 -231 17 -338 20 -107 4 -197 9 -199 11
-2 2 79 5 180 5 150 1 506 12 569 17 10 0 9 -3 -4 -11z m-1178 -2 c-8 -8 -521
-23 -538 -16 -8 3 41 8 110 11 197 8 434 11 428 5z m-1161 -11 c-3 -3 -12 -4
-19 -1 -8 3 -5 6 6 6 11 1 17 -2 13 -5z m-162 -15 c-202 -11 -327 -10 -320 1
4 6 89 9 228 8 214 -1 217 -2 92 -9z m8220 -8 c-26 -23 -185 -68 -162 -45 5 5
159 60 177 63 2 1 -4 -7 -15 -18z m-11460 -11 c-3 -5 -13 -10 -21 -10 -8 0
-14 5 -14 10 0 6 9 10 21 10 11 0 17 -4 14 -10z m510 0 c-40 -17 -184 -26
-208 -13 -19 10 -10 12 63 15 164 7 166 7 145 -2z m-689 -25 c-14 -13 -26 -28
-26 -33 0 -5 -121 -11 -277 -14 l-278 -5 -27 31 c-15 17 -27 34 -28 39 0 4
149 7 331 7 l332 0 -27 -25z m-1083 9 c13 -13 -3 -20 -37 -16 -20 2 -36 8 -36
13 0 10 63 12 73 3z m2834 -5 c-21 -5 -60 -5 -90 0 -49 8 -47 9 38 9 74 0 83
-2 52 -9z m-3742 -19 c-3 -5 -21 -9 -38 -9 l-32 2 35 7 c19 4 36 8 38 9 2 0 0
-3 -3 -9z m9093 -7 c-15 -2 -42 -2 -60 0 -18 2 -6 4 27 4 33 0 48 -2 33 -4z
m-10006 -35 c-17 -8 -26 -8 -34 0 -9 9 -4 12 23 11 32 0 33 -1 11 -11z m3283
2 c4 -6 -9 -10 -32 -9 -30 0 -34 2 -18 9 27 12 43 12 50 0z m-3759 -32 c-22
-18 -54 -42 -72 -54 -31 -22 -32 -22 -37 -3 -4 15 1 23 20 30 24 9 25 10 9 34
l-16 25 67 0 68 0 -39 -32z m1759 22 c3 -5 -3 -10 -14 -10 -12 0 -21 5 -21 10
0 6 6 10 14 10 8 0 18 -4 21 -10z m450 0 c-28 -12 -63 -12 -70 0 -4 6 12 10
42 9 36 0 43 -3 28 -9z m12494 -71 l23 -31 -58 6 c-33 3 -99 8 -149 12 -49 3
-92 8 -94 10 -2 2 43 4 100 4 77 0 110 4 125 15 26 20 27 19 53 -16z m-11992
-35 c45 -24 54 -26 138 -20 50 3 106 11 125 16 19 6 119 10 222 10 l188 0 19
-38 c23 -44 78 -96 127 -120 19 -8 34 -19 34 -23 0 -9 -1306 -12 -1407 -3
l-72 7 28 28 c16 16 39 53 51 83 l23 54 156 6 c86 3 185 10 221 14 36 5 73 10
82 10 9 1 39 -10 65 -24z m6341 19 l173 -6 19 -36 c30 -58 142 -151 182 -151
10 0 18 -4 18 -9 0 -7 -4224 -7 -4347 0 -31 2 -29 11 6 31 36 20 90 93 98 130
l5 28 267 -3 c146 -1 527 -1 846 -1 319 1 657 1 750 1 94 0 451 4 795 10 863
13 990 14 1188 6z m2462 -14 c14 6 42 7 65 2 l40 -8 -45 -21 c-56 -27 -125
-28 -183 -3 -69 30 -64 38 21 29 47 -5 87 -5 102 1z m803 -22 c18 -41 116
-133 162 -153 19 -8 35 -15 35 -17 0 -1 -182 -2 -405 -2 -223 -1 -405 0 -405
2 0 1 17 11 38 22 42 22 112 93 136 139 9 17 24 32 33 34 10 2 102 4 205 5
l188 3 13 -33z m-7323 13 c0 -10 -57 -30 -84 -30 -12 0 -29 7 -40 15 -17 13
-14 14 30 17 88 6 94 6 94 -2z m5230 1 c0 -23 115 -132 166 -157 30 -14 54
-27 54 -28 0 -1 -160 -1 -355 -2 -195 0 -355 1 -355 3 0 1 26 16 59 33 55 30
161 122 161 140 0 12 40 17 163 19 61 0 107 -3 107 -8z m440 -3 c0 -12 -70
-21 -118 -14 -83 11 -68 24 27 23 50 -1 91 -5 91 -9z m-6958 -10 c-7 -7 -28
-12 -47 -12 -19 0 -40 5 -47 12 -9 9 1 12 47 12 46 0 56 -3 47 -12z m7383 -8
c11 -35 91 -106 149 -130 31 -14 56 -27 56 -31 0 -3 -121 -6 -270 -7 -148 0
-270 2 -270 4 0 2 19 13 41 25 45 23 135 110 144 140 5 16 17 19 75 19 60 0
69 -3 75 -20z m-9250 -10 c-4 -13 1 -34 14 -56 26 -43 20 -46 -80 -42 -58 2
-74 6 -74 18 0 10 -11 16 -31 17 -17 0 -47 9 -65 19 -29 15 -31 19 -14 22 11
2 27 10 35 17 22 19 45 23 138 24 80 1 83 0 77 -19z m2229 -9 c19 -36 76 -90
119 -113 l32 -17 -30 -1 c-202 -8 -435 -9 -435 -1 0 5 12 12 26 15 30 8 131
99 139 127 5 16 16 19 70 19 61 0 65 -2 79 -29z m-2634 -28 c9 -21 32 -53 49
-71 l33 -32 -414 -1 c-227 0 -482 -3 -567 -5 l-154 -5 36 40 c20 22 43 56 51
76 l15 35 313 2 c172 2 382 2 467 1 l153 -1 18 -39z m3249 10 c23 -46 45 -67
97 -93 l39 -19 -184 -1 -184 0 46 31 c26 17 59 50 74 74 24 37 33 44 60 45 28
0 35 -6 52 -37z m-4717 5 c-4 -25 30 -23 53 2 14 15 31 20 70 20 l52 0 17 -43
c9 -23 16 -46 16 -50 0 -4 -33 -7 -72 -7 -55 0 -81 5 -105 20 -18 11 -33 24
-33 30 0 5 -7 10 -15 10 -8 0 -15 2 -15 4 0 2 -3 12 -6 21 -5 13 -2 16 17 13
16 -2 23 -9 21 -20z"/>
<path d="M15760 3746 c0 -2 26 -20 58 -41 168 -112 340 -263 440 -390 31 -38
61 -74 67 -80 33 -29 232 -304 310 -428 133 -209 231 -372 280 -464 28 -52 45
-67 45 -39 0 21 -193 409 -248 498 -224 364 -500 685 -711 827 -130 86 -241
140 -241 117z"/>
<path d="M16915 3564 c-95 -7 -270 -36 -291 -49 -27 -17 -48 -68 -40 -97 3
-13 37 -64 75 -114 108 -142 292 -420 418 -634 69 -115 101 -133 293 -160 132
-19 203 -23 473 -24 l319 -1 29 33 c33 36 36 57 14 99 -8 15 -34 72 -59 126
-73 158 -230 412 -363 585 -34 45 -63 84 -63 87 0 3 10 5 23 5 51 0 43 30 -17
64 -30 18 -68 27 -141 35 -55 6 -161 17 -235 25 -148 16 -356 25 -435 20z
m1081 -950 c17 -14 17 -15 1 -10 -10 3 -23 6 -28 6 -5 0 -9 5 -9 10 0 14 13
12 36 -6z"/>
<path d="M15433 3267 c-29 -27 -44 -51 -56 -94 -37 -128 -87 -432 -87 -532 0
-54 4 -71 27 -104 15 -21 36 -43 47 -49 18 -10 430 -73 706 -109 157 -20 229
0 249 69 12 40 1 75 -60 187 -99 184 -226 362 -361 504 -114 122 -177 152
-323 159 l-102 4 -40 -35z m298 -139 c33 -35 54 -68 42 -68 -10 0 -93 82 -93
92 0 17 23 6 51 -24z m-31 -153 c13 -14 21 -25 18 -25 -2 0 -15 11 -28 25 -13
14 -21 25 -18 25 2 0 15 -11 28 -25z m-74 -86 c19 -21 19 -21 -6 -18 -14 2
-26 12 -28 22 -5 23 11 22 34 -4z m-56 -94 c10 -12 8 -20 -12 -44 -38 -49 -43
-38 -21 42 5 21 17 22 33 2z m-40 -95 c0 -5 -5 -10 -11 -10 -5 0 -7 5 -4 10 3
6 8 10 11 10 2 0 4 -4 4 -10z"/>
<path d="M17204 2133 c-12 -2 -32 -15 -44 -28 -40 -43 -24 -109 42 -173 46
-43 145 -65 279 -60 106 3 138 18 133 61 -1 12 -3 25 -3 29 -2 17 -106 110
-139 124 -43 18 -198 54 -227 52 -11 0 -30 -3 -41 -5z m284 -137 c15 -8 38
-26 52 -41 l25 -27 -75 7 c-83 8 -93 12 -67 26 9 6 17 19 17 29 0 24 11 25 48
6z"/>
<path d="M13150 3589 c-106 -10 -145 -17 -137 -26 9 -8 340 18 352 28 11 11
-83 10 -215 -2z"/>
<path d="M13855 3373 c-38 -2 -144 -10 -235 -18 -91 -9 -237 -23 -325 -31 -88
-8 -313 -19 -500 -24 -360 -10 -372 -11 -674 -62 -190 -32 -194 -33 -227 -68
-19 -19 -34 -40 -34 -46 0 -7 -16 -69 -35 -139 -44 -161 -75 -321 -75 -387 0
-45 4 -54 39 -88 l39 -38 198 -7 c118 -5 330 -3 519 3 615 22 863 25 1000 12
175 -17 553 -19 629 -3 47 10 65 20 92 50 18 21 38 54 44 73 14 47 29 206 30
321 1 53 13 154 27 232 25 138 26 139 6 165 -40 55 -70 62 -268 60 -99 -1
-211 -3 -250 -5z m399 -145 c-20 -36 -26 -39 -45 -22 -28 25 -23 34 17 34 25
0 33 -4 28 -12z m-1194 -39 c-25 -4 -79 -7 -120 -6 l-75 1 70 6 c39 4 93 7
120 7 l50 0 -45 -8z m-890 -59 c-8 -5 -28 -9 -45 -9 l-30 1 30 8 c17 4 37 8
45 9 13 1 13 0 0 -9z m-120 -7 c-1 -5 -19 -20 -40 -35 l-40 -28 0 28 c0 16 3
32 7 35 9 10 73 9 73 0z m78 -167 c-25 -19 -48 -43 -52 -52 -4 -9 -9 -14 -12
-11 -3 3 2 26 11 51 17 44 19 46 58 46 l40 0 -45 -34z m1360 9 c-8 -9 -169
-53 -218 -61 -78 -12 -35 7 92 41 112 30 140 34 126 20z m462 -179 c0 -3 -4
-8 -10 -11 -5 -3 -10 -1 -10 4 0 6 5 11 10 11 6 0 10 -2 10 -4z m50 -151 c-7
-8 -24 -15 -39 -15 -25 1 -25 2 9 19 39 20 49 19 30 -4z m133 -10 c8 -19 -4
-25 -31 -18 -21 5 -21 6 -5 19 23 17 30 17 36 -1z m-2207 -20 l27 -25 -38 0
c-30 0 -36 3 -31 16 3 9 6 20 6 25 0 14 7 11 36 -16z m1424 5 c0 -6 -27 -9
-62 -9 -58 2 -60 2 -23 9 61 11 85 11 85 0z"/>
<path d="M9800 3150 c-132 -16 -331 -46 -576 -85 -50 -8 -103 -15 -116 -15
-35 0 -109 -34 -134 -62 -37 -40 -115 -314 -138 -480 -7 -44 -5 -48 29 -82
l36 -36 182 0 c181 0 528 21 662 40 39 5 98 9 133 10 57 0 67 3 93 29 24 24
29 38 29 78 0 57 29 181 65 278 42 112 73 238 65 260 -4 11 -21 35 -38 53 -28
29 -35 32 -89 31 -32 -1 -123 -9 -203 -19z m-615 -205 c-16 -8 -39 -14 -49
-15 -32 0 -88 -49 -81 -70 3 -10 -3 -33 -15 -52 -24 -40 -25 -24 -4 70 l16 71
56 4 c114 7 111 7 77 -8z m-30 -175 c-43 -44 -56 -40 -30 9 11 23 23 31 42 31
l27 0 -39 -40z m-140 -206 c-16 -24 -16 -27 1 -45 9 -10 12 -19 7 -19 -6 0
-25 -3 -42 -6 -28 -6 -31 -4 -25 12 7 18 63 84 72 84 2 0 -3 -12 -13 -26z"/>
<path d="M8345 2975 c-87 -7 -132 -8 -137 -1 -9 13 -326 -9 -393 -28 -81 -23
-122 -44 -144 -74 -21 -30 -76 -207 -111 -357 -33 -141 -12 -165 144 -165 102
0 276 15 430 36 68 9 150 14 193 12 64 -4 79 -2 106 16 28 19 32 27 33 71 1
55 36 191 85 330 37 107 39 133 9 157 -25 20 -29 20 -215 3z m-100 -115 c-9
-15 -72 -23 -112 -14 l-38 8 50 6 c80 11 107 11 100 0z m-65 -105 c0 -2 -18
-14 -40 -25 -48 -25 -53 -18 -7 10 32 20 47 25 47 15z m75 -144 c-3 -6 -11
-11 -17 -11 -6 0 -6 6 2 15 14 17 26 13 15 -4z m12 -112 c9 -9 20 -9 44 0 32
11 49 8 35 -6 -9 -10 -126 -12 -126 -2 0 7 16 16 31 18 3 1 10 -4 16 -10z"/>
<path d="M7175 2899 c-33 -5 -127 -15 -210 -24 -126 -13 -249 -34 -350 -60
-32 -8 -68 -39 -76 -66 -4 -13 -18 -62 -32 -109 -75 -253 -81 -308 -41 -345
23 -21 37 -25 93 -25 92 0 280 18 381 35 47 8 122 18 168 22 104 8 127 23 129
85 2 46 31 157 82 322 23 75 28 103 20 118 -12 23 -68 58 -89 57 -8 -1 -42 -5
-75 -10z m-495 -165 c0 -8 -32 -33 -42 -34 -5 0 -8 9 -8 20 0 15 7 20 25 20
14 0 25 -3 25 -6z m430 -314 c0 -5 -5 -10 -11 -10 -5 0 -7 5 -4 10 3 6 8 10
11 10 2 0 4 -4 4 -10z m-523 -37 c4 -11 -32 -25 -41 -15 -8 8 15 33 27 29 6
-2 12 -8 14 -14z"/>
<path d="M14115 2050 c-71 -10 128 -10 215 0 57 6 51 7 -50 7 -63 0 -137 -3
-165 -7z"/>
<path d="M10952 3109 c-62 -10 -98 -28 -129 -61 -25 -26 -69 -194 -98 -376
-17 -99 -17 -105 1 -143 9 -22 25 -44 34 -49 25 -14 310 0 342 16 47 24 44 14
119 492 11 68 10 76 -8 100 -19 26 -25 27 -114 28 -52 1 -118 -2 -147 -7z"/>
<path d="M5205 2673 c-190 -18 -591 -88 -622 -108 -37 -24 -49 -52 -92 -201
-49 -168 -51 -197 -16 -220 22 -15 45 -16 158 -11 73 3 197 15 277 27 80 12
180 23 223 25 114 4 128 16 144 131 7 49 26 135 43 191 34 117 31 144 -21 162
-17 6 -37 10 -43 9 -6 -1 -29 -3 -51 -5z m-80 -403 c-3 -5 -18 -10 -33 -10
-21 0 -24 2 -12 10 20 13 53 13 45 0z"/>
<path d="M4130 2534 c-14 -3 -110 -18 -215 -35 -219 -35 -319 -56 -357 -75
-23 -12 -33 -31 -62 -127 -66 -212 -68 -234 -22 -255 28 -12 137 -4 425 33
106 13 198 22 203 19 17 -11 68 18 72 40 19 98 32 154 57 235 33 106 34 119
14 144 -14 19 -69 29 -115 21z"/>
<path d="M13825 6130 c-35 -24 -173 -90 -188 -90 -19 0 -118 -82 -138 -113
-46 -76 -13 -90 88 -37 90 48 153 96 153 116 0 9 -5 12 -12 8 -7 -4 -4 3 7 15
11 13 38 32 60 43 43 22 85 56 85 70 0 14 -24 9 -55 -12z"/>
<path d="M17915 5786 c-87 -32 -228 -144 -279 -220 -48 -72 -63 -110 -82 -202
-30 -143 3 -161 110 -63 61 56 100 110 157 214 32 58 169 190 226 217 26 13
48 30 48 38 0 27 -122 38 -180 16z"/>
<path d="M12704 5296 c-33 -17 -84 -42 -113 -55 -53 -25 -124 -94 -134 -131
-20 -75 131 -3 255 122 106 107 104 121 -8 64z"/>
<path d="M10609 5210 c-144 -17 -273 -68 -381 -149 -127 -96 -175 -179 -183
-316 -5 -78 -3 -85 16 -95 16 -9 26 -8 47 6 44 29 164 155 225 236 87 115 259
250 347 272 44 10 56 22 41 40 -14 17 -14 17 -112 6z m-466 -410 c-18 -31 -36
-41 -28 -15 3 8 7 22 10 30 2 8 12 15 20 15 14 0 14 -3 -2 -30z"/>
<path d="M4435 4814 c-100 -50 -177 -153 -159 -215 14 -48 38 -59 68 -30 13
12 27 34 31 48 13 53 89 145 151 182 19 11 19 11 0 26 -26 19 -31 19 -91 -11z"/>
<path d="M19158 4682 c-47 -32 -124 -92 -172 -133 -134 -114 -180 -151 -238
-192 -96 -69 -229 -190 -218 -201 6 -6 -25 -28 -87 -63 -102 -56 -146 -90
-137 -104 11 -18 37 -8 107 41 40 28 109 63 157 80 246 89 336 139 454 250 69
65 98 105 160 224 26 49 57 97 69 107 20 16 21 19 7 33 -15 15 -24 11 -102
-42z m-14 -77 c-4 -8 -11 -15 -16 -15 -6 0 -5 6 2 15 7 8 14 15 16 15 2 0 1
-7 -2 -15z m-74 -110 c0 -9 -54 -54 -59 -49 -3 2 6 15 20 29 22 22 39 31 39
20z"/>
<path d="M6690 4377 c-19 -11 -71 -44 -115 -73 -45 -28 -108 -65 -141 -83
-153 -79 -335 -291 -250 -291 8 0 53 14 101 32 122 44 223 116 323 229 46 52
102 114 124 137 31 35 37 47 27 58 -15 18 -27 17 -69 -9z m-15 -77 c-3 -5 -12
-10 -18 -10 -7 0 -6 4 3 10 19 12 23 12 15 0z"/>
<path d="M17530 4330 c0 -5 7 -7 15 -4 8 4 15 8 15 10 0 2 -7 4 -15 4 -8 0
-15 -4 -15 -10z"/>
<path d="M3621 4143 c-38 -53 -53 -103 -31 -103 5 0 25 24 44 54 19 30 39 57
45 60 16 10 13 46 -3 46 -8 0 -33 -25 -55 -57z"/>
<path d="M4615 4110 c-3 -5 -1 -10 4 -10 6 0 11 5 11 10 0 6 -2 10 -4 10 -3 0
-8 -4 -11 -10z"/>
<path d="M7114 3992 c-48 -35 -117 -67 -165 -76 -32 -6 -154 -84 -171 -110 -9
-14 0 -26 20 -26 33 0 183 78 218 113 20 19 65 49 101 66 35 17 63 37 61 43
-7 21 -24 19 -64 -10z"/>
</g>
</svg>
